<svg xmlns="http://www.w3.org/2000/svg" width="1200" height="675" viewBox="0 0 1200 675">
<rect width="1200" height="675" fill="#F7FBFE"/><rect x="80" y="170" width="270" height="245" rx="24" fill="#1677B8"/><g stroke="#fff" stroke-width="10"><path d="M120 225h190"/><path d="M120 275h190"/><path d="M120 325h190"/><path d="M120 375h190"/></g>
<g fill="none" stroke="#1677B8" stroke-width="22" stroke-linecap="round"><path d="M360 230 C520 160 600 180 730 245"/><path d="M360 310 C535 245 620 270 775 335"/><path d="M360 390 C560 340 675 365 835 425"/></g>
<path d="M750 110 C820 160 845 220 812 285 C740 275 700 235 706 170Z" fill="#E99A2B"/><path d="M818 290 C890 330 920 390 895 458 C825 455 780 425 770 360Z" fill="#E99A2B" opacity=".78"/>
<text x="80" y="85" font-size="50" font-weight="900" font-family="Arial" fill="#1677B8">FALL COMFORT STARTS</text><text x="80" y="140" font-size="50" font-weight="900" font-family="Arial" fill="#E99A2B">WHERE YOUR AIR MOVES.</text>
<rect x="690" y="515" width="420" height="78" rx="39" fill="#1677B8"/><text x="748" y="565" font-size="27" font-weight="700" font-family="Arial" fill="#fff">$299 duct-cleaning offer</text></svg>